<svg width="18px" height="19px" viewBox="0 0 18 19" version="1.1" xmlns="http://www.w3.org/2000/svg" xmlns:xlink="http://www.w3.org/1999/xlink">
    <g id="Symbols" stroke="none" stroke-width="1" fill="none" fill-rule="evenodd" opacity="0.600000024">
        <g id="Footer" transform="translate(-1215.000000, -215.000000)" fill="#2B292D">
            <g id="Social-Icons">
                <g transform="translate(1174.000000, 213.000000)">
                    <path d="M59,2.79166667 L59,20.2083333 C59,20.5230423 58.5548895,20.9928812 58.25,21 L53.75,21 L53.75,13.875 L56,13.875 L56,10.7083333 L53.75,10.7083333 L53.75,9.125 C53.4226302,8.10790558 53.6384414,7.54552267 54.5,7.54166667 L56,7.54166667 L56,5.16666667 C55.9584114,4.94717123 55.1086549,4.86886474 53.75,5.16666667 C52.0333458,4.86886474 50.6170851,6.20719371 50.75,8.33333333 L50.75,10.7083333 L48.5,10.7083333 L48.5,13.875 L50.75,13.875 L50.75,21 L41.75,21 C41.4451105,21 41,20.5301611 41,20.2083333 L41,2.79166667 C41,2.46983889 41.4451105,2 41.75,2 L58.25,2 C58.5548895,2 59,2.46272012 59,2.79166667 L59,2.79166667 Z" id="icon-fb"></path>
                </g>
            </g>
        </g>
    </g>
</svg>