<svg width="18px" height="19px" viewBox="0 0 18 19" version="1.1" xmlns="http://www.w3.org/2000/svg" xmlns:xlink="http://www.w3.org/1999/xlink">
    <g id="Symbols" stroke="none" stroke-width="1" fill="none" fill-rule="evenodd" opacity="0.600000024">
        <g id="Footer" transform="translate(-1253.000000, -213.000000)" fill="#2B292D" fill-rule="nonzero">
            <g id="Social-Icons">
                <g transform="translate(1174.000000, 213.000000)">
                    <path d="M97,11.6488849 L97,19 L93.1420172,19 L93.1420172,12.1412183 C93.1420172,10.4182364 92.5840016,9.24236865 91.1875397,9.24236865 C90.1215181,9.24236865 89.4871279,10.0348173 89.2080364,10.8013781 C89.1062595,11.0754206 89.0800619,11.4568518 89.0800619,11.8404558 L89.0800619,19 L85.2207818,19 C85.2207818,19 85.2727583,7.38347502 85.2207818,6.1799164 L89.0796853,6.1799164 L89.0796853,7.99711194 C89.0718595,8.01070311 89.0616902,8.02535754 89.0543248,8.03853266 L89.0796853,8.03853266 L89.0796853,7.99711194 C89.5923784,7.12482664 90.5079943,5.87873782 92.5574274,5.87873782 C95.0965365,5.87873782 97,7.71105007 97,11.6488849 Z M81.1838105,0 C79.8635557,0 79,0.956606051 79,2.2145756 C79,3.44513165 79.8385718,4.43076919 81.1325872,4.43076919 L81.1583662,4.43076919 C82.5041907,4.43076919 83.3411723,3.44531657 83.3411723,2.2145756 C83.3158117,0.956606051 82.5041907,0 81.1838105,0 Z M79.2292074,19 L83.0870228,19 L83.0870228,6.1799164 L79.2292074,6.1799164 L79.2292074,19 Z" id="LinkedIn"></path>
                </g>
            </g>
        </g>
    </g>
</svg>