<svg width="21px" height="19px" viewBox="0 0 21 19" version="1.1" xmlns="http://www.w3.org/2000/svg" xmlns:xlink="http://www.w3.org/1999/xlink">
    <g id="Symbols" stroke="none" stroke-width="1" fill="none" fill-rule="evenodd" opacity="0.600000024">
        <g id="icon-twitter" fill="#2B292D">
            <path d="M21,2.26417803 C20.2281214,2.64608758 19.3949825,2.90524049 18.5250875,3.0143575 C19.4194866,2.41421393 20.0933489,1.48671931 20.424154,0.354630294 C19.5910152,0.900215363 18.672112,1.30940416 17.6919487,1.51399856 C16.907818,0.586503948 15.7806301,0 14.5431739,0 C12.1662777,0 10.2304551,2.15506102 10.2304551,4.8011486 C10.2304551,5.18305815 10.2672112,5.53768844 10.3407235,5.89231874 C6.76312719,5.68772434 3.57759627,3.7781766 1.457993,0.872936109 C1.09043174,1.5821967 0.869894982,2.4005743 0.869894982,3.28715004 C0.869894982,4.95118449 1.62952159,6.42426418 2.79346558,7.28356066 C2.08284714,7.25628141 1.42123687,7.03804738 0.845390898,6.68341709 L0.845390898,6.73797559 C0.845390898,9.05671213 2.32788798,11.0071788 4.30046674,11.4436468 C3.93290548,11.5527638 3.55309218,11.6073223 3.16102684,11.6073223 C2.87922987,11.6073223 2.60968495,11.5800431 2.35239207,11.5254846 C2.90373396,13.4350323 4.49649942,14.8262742 6.38331389,14.8535535 C4.91306884,16.1356784 3.05075846,16.9131371 1.02917153,16.9131371 C0.686114352,16.9131371 0.343057176,16.8858579 0,16.844939 C1.91131855,18.2089017 4.17794632,19 6.60385064,19 C14.5309218,19 18.8681447,11.6891601 18.8681447,5.34673367 C18.8681447,5.14213927 18.8681447,4.93754487 18.8558926,4.71931084 C19.6890315,4.07824838 20.424154,3.23259153 21,2.26417803 L21,2.26417803 L21,2.26417803 Z"></path>
        </g>
    </g>
</svg>